<svg xmlns="http://www.w3.org/2000/svg" width="37.7" height="37.7" viewBox="0 0 37.7 37.7"><defs><style>.a{fill:none;stroke:#1794ad;stroke-miterlimit:10;stroke-width:2px;}.b{fill:#1794ad;fill-rule:evenodd;}</style></defs><g transform="translate(-306.572 -192.591)"><circle class="a" cx="17.85" cy="17.85" r="17.85" transform="translate(307.572 193.591)"/><g transform="translate(319.326 217.826)"><path class="b" d="M340.161,255.423h5.078a1,1,0,0,1,1.01,1.256l-1.038,5.019a1.634,1.634,0,0,1-1.529,1.257H338.6a1,1,0,0,1-1.01-1.257l1.038-5.019A1.632,1.632,0,0,1,340.161,255.423Z" transform="translate(-337.559 -255.422)"/></g><g transform="translate(321.342 209.227)"><path class="b" d="M345.305,233.485h5.078a1,1,0,0,1,1.01,1.256l-1.038,5.019a1.633,1.633,0,0,1-1.529,1.257h-5.079a1,1,0,0,1-1.044-.947,1.008,1.008,0,0,1,.034-.31l1.038-5.019A1.633,1.633,0,0,1,345.305,233.485Z" transform="translate(-342.703 -233.484)"/></g><g transform="translate(323.256 200.629)"><path class="b" d="M350.187,211.547h5.078a1,1,0,0,1,1.01,1.256l-1.038,5.019a1.633,1.633,0,0,1-1.529,1.256H348.63a1,1,0,0,1-1.01-1.256l1.038-5.019A1.633,1.633,0,0,1,350.187,211.547Z" transform="translate(-347.585 -211.546)"/></g><g transform="translate(314.351 200.629)"><path class="b" d="M327.468,211.547h5.078a1,1,0,0,1,1.01,1.256l-1.038,5.019a1.633,1.633,0,0,1-1.529,1.256h-5.079a1,1,0,0,1-1.01-1.256l1.038-5.019A1.633,1.633,0,0,1,327.468,211.547Z" transform="translate(-324.866 -211.546)"/></g><g transform="translate(332.161 200.629)"><path class="b" d="M372.906,211.547h5.078a1,1,0,0,1,1.01,1.256l-1.038,5.019a1.633,1.633,0,0,1-1.529,1.256h-5.079a1,1,0,0,1-1.01-1.256l1.038-5.019A1.633,1.633,0,0,1,372.906,211.547Z" transform="translate(-370.304 -211.546)"/></g></g></svg>